<svg width="24" height="24" viewBox="0 0 24 24" fill="none" xmlns="http://www.w3.org/2000/svg">
<g clip-path="url(#clip0_3130_786)">
<circle cx="12" cy="12" r="12" fill="white"/>
<path d="M19.4904 15.0747C19.4904 18.3454 15.8358 18.658 13.2503 18.6727H10.9253V15.7282H15.5493V13.4813H10.9253V10.427H16.0442V8.0521H8.21404V18.6784H5.2231V5.32163H13.2548C15.6433 5.32163 19.4949 5.66251 19.4949 8.82333C19.4949 10.3862 18.1552 11.5357 16.5946 11.9309C18.5277 12.5277 19.4904 13.4858 19.4904 15.0747ZM12 0C5.37259 0 0 5.37259 0 12C0 18.6274 5.37259 24 12 24C18.6274 24 24 18.6274 24 12C24 5.37373 18.6297 0.00226501 12.0034 0H12Z" fill="#0071BB"/>
</g>
<defs>
<clipPath id="clip0_3130_786">
<rect width="24" height="24" fill="white"/>
</clipPath>
</defs>
</svg>
